<svg width="183" height="31" fill="none" xmlns="http://www.w3.org/2000/svg"><path d="M2 24H0V11h2v5.7H9V11h2v13.2H9v-6H2v6zM16.8 15.2l-1.9-.6c.3-1.3 1-2.3 2-3 .9-.6 2.1-1 3.6-1 1.7 0 3 .4 3.8 1 .8.8 1.2 1.8 1.2 3.2v7.6h2.3v1.7h-4.5l.2-1.7v-1.8l-1.8 2.7-1.5.8-1.8.2c-1 0-2-.3-2.6-1-.7-.6-1-1.5-1-2.6s.3-2 1-2.4c.6-.5 1.4-.8 2.3-1l2.9-.7c1-.2 1.8-.6 2.5-1.1v-.6c0-.8-.3-1.5-.8-2s-1.2-.8-2.3-.8c-1.1 0-2 .3-2.5.8s-.9 1.3-1.1 2.3zm.1 5.2c0 .8.2 1.3.7 1.8.4.4 1 .6 1.6.6a4 4 0 002.4-.8c.7-.5 1.4-1.3 2-2.5v-3.7c-.6.6-1.2 1-2 1.3a158 158 0 00-4 1.6c-.4.4-.7 1-.7 1.7zM30 17.5c0-1 .2-2 .5-2.8a6.3 6.3 0 013.5-3.6c.8-.3 1.7-.5 2.6-.5 1.4 0 2.7.4 3.8 1.2a5 5 0 012 3.1l-1.8.7a4.4 4.4 0 00-1.4-2.7 4 4 0 00-2.7-1c-1.2 0-2.2.6-3 1.6-.8 1-1.2 2.3-1.2 4 0 1.7.4 3 1.2 4 .8 1 1.8 1.5 3 1.5 1.1 0 2-.4 2.7-1 .7-.6 1.1-1.6 1.4-2.8l1.9.7a5 5 0 01-2 3.2c-1.2.8-2.4 1.2-3.9 1.2-1 0-1.8-.1-2.6-.5-.8-.3-1.5-.8-2-1.4-.7-.6-1.1-1.3-1.5-2.2-.3-.8-.5-1.7-.5-2.7zM51.4 24h-2V12.4h-5V11h11.8v1.4h-4.8v11.8zM60.2 15.2l-1.8-.6c.3-1.3.9-2.3 1.8-3 1-.6 2.2-1 3.7-1 1.7 0 3 .4 3.8 1 .8.8 1.3 1.8 1.3 3.2v7.6h2.2v1.7h-4.4l.1-1.7v-1.8l-1.8 2.7-1.5.8-1.8.2c-1 0-1.9-.3-2.6-1-.7-.6-1-1.5-1-2.6s.3-2 1-2.4c.6-.5 1.4-.8 2.3-1l3-.7c1-.2 1.8-.6 2.4-1.1v-.6c0-.8-.2-1.5-.8-2-.5-.5-1.2-.8-2.3-.8-1.1 0-2 .3-2.5.8s-.9 1.3-1.1 2.3zm.1 5.2c0 .8.2 1.3.7 1.8.4.4 1 .6 1.6.6A4 4 0 0065 22c.7-.5 1.4-1.3 2-2.5v-3.7c-.6.6-1.2 1-2 1.3a158 158 0 00-4 1.6c-.4.4-.7 1-.7 1.7zM85 20.3c0 1.2-.4 2.2-1.3 2.8-.8.6-2.1 1-3.9 1h-5.4V10.9h5.2c1.7 0 2.9.3 3.6.9.8.5 1.2 1.3 1.2 2.3 0 .6-.2 1.2-.6 1.8-.3.5-1 1-1.7 1.2a4 4 0 012.2 1.3c.5.5.7 1.2.7 2zm-5.4-8h-3.2v4.4h3.4c.8 0 1.4-.2 1.8-.7.5-.4.7-1 .7-1.6 0-.7-.2-1.2-.6-1.6-.5-.3-1.2-.5-2-.5zm.2 5.4h-3.4v5h3.3c1.1 0 2-.3 2.5-.6.5-.4.8-1 .8-1.9 0-.7-.3-1.3-.8-1.8-.6-.4-1.3-.7-2.4-.7zM90.4 24h-2V11h2v5.7h6.8V11h2v13.2h-2v-6h-6.8v6zM105.6 24h-2V11h2v10.6l7.2-10.6h2v13.2h-2V13.5L105.6 24zM128 24l-6.9-6.2v6.3h-2V10.9h2v6l6.6-6h2.4l-7 6.3 7.5 6.9h-2.5zM135.7 24H133v-2.5h2.6v2.6zM141.6 24h-2V11h10.7v13.2h-2V12.3h-6.7v11.8zM161.6 24.3c-1.2 0-2.3-.4-3.2-1.1a5.7 5.7 0 01-1.8-3.3v10.7h-2V11h2V15c.3-1.4.9-2.5 1.8-3.2.9-.8 2-1.2 3.1-1.2a5.4 5.4 0 014 1.7 8.6 8.6 0 011.7 5.1c0 1.2-.2 2.2-.6 3-.3 1-.7 1.7-1.2 2.2-.5.6-1 1-1.7 1.3-.7.3-1.4.4-2.1.4zm3.3-6.8c0-1-.1-1.7-.4-2.4a5 5 0 00-.9-1.7 3.7 3.7 0 00-3-1.3c-1 0-2 .4-2.8 1.4-.8.9-1.2 2.2-1.2 4 0 1.8.4 3.1 1.2 4 .8 1 1.8 1.4 3 1.4 1.1 0 2-.4 2.9-1.3.8-1 1.2-2.3 1.2-4.1zM176.5 10.6a6.4 6.4 0 016 4.1c.3.9.5 1.8.5 2.8 0 1-.2 1.9-.5 2.7a6.3 6.3 0 01-3.5 3.6 6.6 6.6 0 01-5.1 0 6.3 6.3 0 01-3.5-3.6c-.3-.8-.5-1.7-.5-2.7a6.8 6.8 0 012-5 6 6 0 012-1.4c.8-.3 1.7-.5 2.6-.5zm0 1.4a4 4 0 00-3.1 1.4c-.8 1-1.2 2.3-1.2 4 0 1.7.4 3 1.2 4 .8 1 1.8 1.6 3 1.6 1.4 0 2.4-.5 3.2-1.5.7-1 1.1-2.4 1.1-4 0-1.8-.4-3.1-1.1-4-.8-1-1.8-1.5-3.1-1.5z" fill="#2E2468"/></svg>