<svg width="357" height="65" fill="none" xmlns="http://www.w3.org/2000/svg"><path d="M69 41.8C69.3 52.6 46.3 59 33 64.9c0 0 27-6 36.6-14.4C75.6 45 75 31 59.2 33.3c-.2 0-.5.6-.7.6 0 0 10.4.8 10.5 7.9z" fill="#224CFF"/><path d="M16.8 21.6c-1.1-.4-2.5-.7-4-1l-.4-2S42.3 33 74.4 1.3L75.6 0l-.4 1.7s-1.3 1-3 3.3c-2.7 3.6-5.3 10.4-1 23.5l-1.3 1s-1-9-5.7-6.2c-2.5 1.5-3.9 10.1-3.9 10.1l-2 .6s7-19.6-4.7-16.5C43.2 20.3 38.3 29 35 64.3c0 .2-2 .6-2 .6s3-19.3-5.8-18.8c-7.2.3-19.8 18.3-19.8 18.3H4.5s34-37 12.3-42.8z" fill="#224CFF"/><path d="M34.2 19.8c2.6 0 5.4-2.4 6.2-5.4.8-3-.6-5.5-3.3-5.5-2.7 0-5.4 2.4-6.2 5.5-.9 3 .6 5.4 3.3 5.4zM69 41.8C69.3 52.6 46.3 59 33 64.9c0 0 27-6 36.6-14.4C75.6 45 75 31 59.2 33.3c-.2 0-.5.6-.7.6 0 0 10.4.8 10.5 7.9z" fill="#224CFF"/><path d="M16.8 21.6c-1.1-.4-2.5-.7-4-1l-.4-2S42.3 33 74.4 1.3l1-1.2-.2 1.7s-1.4 1-3 3.3c-2.7 3.6-5.3 10.4-1 23.5l-1.4 1s-1-9-5.6-6.2c-2.6 1.5-4 10.1-4 10.1l-2 .6s7-19.6-4.6-16.5C43.3 20.4 38.3 29 35 64.4c0 .2-2 .6-2 .6s3-19.3-5.8-18.9c-7.2.4-19.8 18.4-19.8 18.4H4.5s34-37 12.3-43z" fill="#224CFF"/><path d="M34.2 19.8c2.6 0 5.4-2.4 6.2-5.4.8-3-.6-5.5-3.3-5.5-2.7 0-5.4 2.4-6.2 5.5-.9 3 .6 5.4 3.3 5.4zM61.5 9.5a5 5 0 003-5.1c-.3-2.1-2.2-3.2-4.2-2.5a5 5 0 00-3 5.2c.3 2.1 2.1 3.2 4.2 2.4zM3.2 63c0 1-.7 1.6-1.6 1.6C.7 64.6 0 64 0 63c0-.9.7-1.6 1.6-1.6 1 0 1.6.7 1.6 1.6zm-3 0c0 .8.6 1.5 1.4 1.5.9 0 1.4-.7 1.4-1.5s-.5-1.5-1.4-1.5c-.8 0-1.4.7-1.4 1.5zm1 0h.4c.2 0 .5 0 .5-.4s-.2-.4-.4-.4h-.5v.7zM1 62h.7c.5 0 .7.2.7.6 0 .3-.2.4-.5.5l.6.8h-.2l-.6-.8h-.5v.8H1V62zM90.8 35.5h.9c1 0 2-.4 2-1.5 0-1-1-1.5-2.1-1.5h-.9v3zm0-4.8h.8c1.2 0 1.9-.5 1.9-1.4 0-.8-.7-1.2-1.8-1.2h-1v2.6zm-2.4-4a18 18 0 013-.3c1.6 0 2.5.1 3.3.6.7.4 1.3 1.1 1.3 2 0 1-.6 1.9-1.8 2.3 1.2.4 2.1 1.3 2.1 2.7 0 1-.4 1.7-1 2.2-.8.7-2.1 1-4.3 1l-2.6-.1V26.6zM98.5 29.4h2.4v7.8h-2.4v-7.8zm1.2-1c-.8 0-1.4-.6-1.4-1.3 0-.7.6-1.3 1.4-1.3.8 0 1.4.6 1.4 1.3 0 .7-.6 1.3-1.4 1.3zM108.4 32.6V32c-.3-.6-.7-1-1.4-1-.9 0-1.6.7-1.6 2.1 0 1.2.6 2 1.6 2 .6 0 1-.3 1.3-.9V32.6zm2.4 3.5c0 1.5-.3 2.7-1.2 3.5-.8.8-2 1-3.2 1-1 0-2-.2-2.7-.6l.4-1.8c.5.2 1.4.5 2.3.5 1.1 0 2-.5 2-2v-.5c-.5.6-1.2 1-2 1-2 0-3.4-1.5-3.4-3.8 0-2.5 1.6-4.1 3.6-4.1 1 0 1.7.4 2.1 1v-.8h2.1V36zM119.7 35.5h1c1 0 2-.4 2-1.5 0-1-1-1.5-2.2-1.5h-.8v3zm0-4.8h.8c1.3 0 2-.5 2-1.4 0-.8-.7-1.2-1.8-1.2h-1v2.6zm-2.4-4a18 18 0 013.1-.3c1.5 0 2.4.1 3.2.6.8.4 1.3 1.1 1.3 2 0 1-.6 1.9-1.8 2.3 1.3.4 2.2 1.3 2.2 2.7 0 1-.5 1.7-1.1 2.2-.8.7-2 1-4.2 1l-2.7-.1V26.6zM127.4 32v-2.6h2V31h.2a2.2 2.2 0 012-1.6h.5v2.3h-.6c-1 0-1.5.4-1.7 1.2v4.4h-2.4V32zM137.6 35.7c1 0 1.6-1 1.6-2.4 0-1.1-.5-2.3-1.6-2.3s-1.6 1.2-1.6 2.3c0 1.3.6 2.4 1.6 2.4zm0 1.7c-2.3 0-4-1.5-4-4 0-2.6 1.6-4.2 4.1-4.2 2.4 0 4 1.7 4 4 0 2.9-2 4.2-4.1 4.2zM146.5 27.3v2.1h1.7v1.8h-1.7V34c0 1 .2 1.4 1 1.4h.6v1.8l-1.5.2c-.8 0-1.4-.3-1.8-.7-.5-.4-.7-1.2-.7-2.3v-3.2h-1v-1.8h1V28l2.4-.6zM150.3 25.9h2.4v4.4a3 3 0 011-.8 3 3 0 011.2-.3c1.6 0 2.8 1 2.8 3.4v4.6h-2.4v-4.3c0-1-.4-1.8-1.3-1.8-.6 0-1 .4-1.2.9v5.2h-2.5V25.9zM165 32.4c0-.5-.4-1.6-1.5-1.6-1 0-1.4 1-1.4 1.6h2.8zm-3 1.6c.1 1 1 1.5 2.3 1.5.8 0 1.4-.1 2.1-.3l.3 1.7c-.8.3-1.7.5-2.8.5-2.6 0-4.1-1.6-4.1-4 0-2 1.2-4.2 4-4.2 2.5 0 3.4 2 3.4 4v1L162 34zM169.2 32v-2.6h2l.1 1.5a2.2 2.2 0 012.2-1.6h.5v2.3h-.7c-.9 0-1.5.4-1.7 1.2v4.4h-2.4V32zM176 35.1c.4.3 1.3.6 2 .6s1-.2 1-.6c0-.4-.2-.6-1-1-1.7-.4-2.3-1.3-2.3-2.2 0-1.5 1.2-2.6 3.2-2.6.9 0 1.7.2 2.2.4l-.4 1.7c-.3-.2-1-.4-1.7-.4-.6 0-.9.2-.9.6 0 .4.3.6 1.2.9 1.5.5 2.1 1.3 2.1 2.4 0 1.5-1 2.5-3.4 2.5-1 0-1.9-.3-2.5-.6l.4-1.7zM189.8 35.5h.9c1 0 2-.4 2-1.5 0-1-1-1.5-2.2-1.5h-.8v3zm0-4.8h.7c1.3 0 2-.5 2-1.4 0-.8-.7-1.2-1.8-1.2h-1v2.6zm-2.4-4a18 18 0 013-.3c1.6 0 2.5.1 3.3.6.7.4 1.2 1.1 1.2 2 0 1-.5 1.9-1.7 2.3 1.2.4 2.1 1.3 2.1 2.7 0 1-.4 1.7-1 2.2-.8.7-2.1 1-4.3 1l-2.6-.1V26.6zM197.5 29.4h2.4v7.8h-2.4v-7.8zm1.2-1c-.8 0-1.4-.6-1.4-1.3 0-.7.6-1.3 1.4-1.3.8 0 1.4.6 1.4 1.3 0 .7-.6 1.3-1.4 1.3zM207.4 32.6V32c-.3-.6-.7-1-1.4-1-.9 0-1.6.7-1.6 2.1 0 1.2.6 2 1.5 2 .7 0 1.2-.3 1.3-.9l.1-.6v-1.1zm2.4 3.5c0 1.5-.4 2.7-1.2 3.5-.8.8-2 1-3.2 1-1 0-2-.2-2.8-.6l.5-1.8c.5.2 1.4.5 2.3.5 1.1 0 2-.5 2-2v-.5c-.5.6-1.3 1-2.1 1-2 0-3.3-1.5-3.3-3.8 0-2.5 1.6-4.1 3.6-4.1 1 0 1.7.4 2.1 1v-.8h2.1V36zM216.4 34.8c.6.3 1.7.6 2.7.6 1 0 1.7-.5 1.7-1.2 0-.6-.5-1-1.8-1.4-1.8-.7-3-1.7-3-3.3 0-1.8 1.5-3.2 4-3.2a7 7 0 012.8.5l-.5 2a5 5 0 00-2.2-.5c-1 0-1.6.5-1.6 1 0 .7.6 1 2 1.5 1.9.7 2.8 1.7 2.8 3.2 0 1.8-1.4 3.4-4.3 3.4-1.3 0-2.5-.3-3-.7l.4-2zM225.3 29.4h2.4v7.8h-2.4v-7.8zm1.2-1c-.9 0-1.4-.6-1.4-1.3 0-.7.5-1.3 1.4-1.3.8 0 1.3.6 1.3 1.3.1.7-.4 1.3-1.3 1.3zM230.2 35.1c.5.3 1.4.6 2.1.6.7 0 1-.2 1-.6 0-.4-.2-.6-1-1-1.7-.4-2.3-1.3-2.3-2.2 0-1.5 1.3-2.6 3.2-2.6 1 0 1.7.2 2.2.4l-.4 1.7c-.3-.2-1-.4-1.7-.4-.5 0-.9.2-.9.6 0 .4.4.6 1.3.9 1.5.5 2 1.3 2 2.4 0 1.5-1 2.5-3.3 2.5-1 0-2-.3-2.6-.6l.4-1.7zM240.4 27.3v2.1h1.7v1.8h-1.7V34c0 1 .3 1.4 1 1.4h.7v1.8l-1.6.2c-.7 0-1.4-.3-1.8-.7-.4-.4-.6-1.2-.6-2.3v-3.2h-1v-1.8h1V28l2.3-.6zM248.8 32.4c0-.5-.2-1.6-1.4-1.6-1 0-1.4 1-1.4 1.6h2.8zM246 34c0 1 1 1.5 2.2 1.5a7 7 0 002.1-.3l.3 1.7c-.8.3-1.7.5-2.8.5-2.6 0-4.1-1.6-4.1-4 0-2 1.2-4.2 4-4.2 2.5 0 3.4 2 3.4 4v1L246 34zM253.2 32l-.1-2.6h2l.1 1.5a2.2 2.2 0 012.2-1.6h.5v2.3h-.7c-.9 0-1.5.4-1.7 1.2v4.4H253V32zM259.8 35.1c.4.3 1.3.6 2 .6s1-.2 1-.6c0-.4-.2-.6-1-1-1.7-.4-2.3-1.3-2.2-2.2 0-1.5 1.2-2.6 3.1-2.6 1 0 1.7.2 2.2.4l-.4 1.7c-.3-.2-1-.4-1.6-.4-.6 0-1 .2-1 .6 0 .4.4.6 1.3.9 1.5.5 2 1.3 2 2.4 0 1.5-1 2.5-3.3 2.5-1 0-2-.3-2.5-.6l.4-1.7zM274.8 35.7c1 0 1.5-1 1.5-2.4 0-1.1-.4-2.3-1.5-2.3-1.2 0-1.6 1.2-1.6 2.3 0 1.3.6 2.4 1.6 2.4zm0 1.7c-2.3 0-4-1.5-4-4 0-2.6 1.6-4.2 4.1-4.2 2.4 0 4 1.7 4 4 0 2.9-2 4.2-4.1 4.2zM281.2 37.2v-6h-1v-1.9h1V29c0-1 .3-2 1-2.6.7-.6 1.4-.8 2.2-.8l1.3.1-.1 2c-.2-.2-.5-.2-.8-.2-.8 0-1 .6-1 1.4v.4h1.5V31h-1.6v6.1h-2.5zM293.4 31.2h1c1.2 0 1.9-.6 1.9-1.5 0-1-.7-1.5-1.8-1.5h-1.1v3zm-2.4-4.6l3.2-.2c1.6 0 2.7.2 3.5.8.6.5 1 1.3 1 2.3 0 1.3-1 2.3-2 2.6.9.4 1.3 1.1 1.5 2l.9 3.1h-2.5c-.1-.3-.5-1.2-.7-2.5-.3-1.4-.8-1.7-1.8-1.7h-.7v4.2H291V26.6zM308.2 34.7v2.5h-2l-.2-1.1c-.3.5-1 1.3-2.5 1.3-1.6 0-2.7-1-2.7-3.4v-4.6h2.4v4.2c0 1.2.4 1.8 1.2 1.8.7 0 1-.5 1.3-.8V29.4h2.4v5.3zM310.7 35.1c.5.3 1.4.6 2 .6.8 0 1.1-.2 1.1-.6 0-.4-.2-.6-1-1-1.7-.4-2.4-1.3-2.3-2.2 0-1.5 1.2-2.6 3.2-2.6.9 0 1.7.2 2.2.4l-.4 1.7c-.3-.2-1-.4-1.7-.4-.6 0-.9.2-.9.6 0 .4.3.6 1.2.9 1.5.5 2.1 1.3 2.1 2.4 0 1.5-1 2.5-3.4 2.5-1 0-1.9-.3-2.5-.6l.4-1.7zM318 35.1c.5.3 1.4.6 2.2.6.7 0 1-.2 1-.6 0-.4-.3-.6-1.1-1-1.6-.4-2.3-1.3-2.2-2.2 0-1.5 1.2-2.6 3.2-2.6.9 0 1.6.2 2.2.4l-.4 1.7c-.3-.2-1-.4-1.7-.4-.6 0-1 .2-1 .6 0 .4.4.6 1.3.9 1.5.5 2 1.3 2 2.4 0 1.5-1 2.5-3.3 2.5-1 0-2-.3-2.5-.6l.4-1.7zM325.6 29.4h2.4v7.8h-2.4v-7.8zm1.2-1c-.8 0-1.3-.6-1.3-1.3 0-.7.5-1.3 1.3-1.3.9 0 1.4.6 1.4 1.3 0 .7-.5 1.3-1.4 1.3zM334.7 33.5c-1.3 0-2.3.4-2.3 1.3 0 .6.4.9 1 .9s1-.4 1.2-1v-1.2zm2.3 1.8l.1 1.9H335l-.1-.8c-.6.7-1.4 1-2.3 1A2.4 2.4 0 01330 35c0-2 1.8-3 4.6-3 0-.4-.2-1-1.4-1-.8 0-1.6.2-2.2.5l-.4-1.5c.5-.3 1.6-.7 3-.7 2.6 0 3.5 1.5 3.5 3.3v2.7h-.1zM95.6 55.3c-.5.2-1.5.5-2.7.5-2.5 0-4.8-1.5-4.8-5.2 0-3 2-5.4 5.2-5.4 1.3 0 2 .3 2.3.5l-.2.6c-.5-.3-1.3-.5-2.2-.5-2.7 0-4.4 1.8-4.4 4.8 0 2.8 1.6 4.6 4.4 4.6.8 0 1.7-.2 2.2-.5l.2.6zM101.3 48.3v.7H99v6.6h-.7V49h-2.4v-.7h5.4zM107 51.7c-1.7 0-3.7.2-3.7 2 0 1 .7 1.5 1.4 1.5 1.2 0 1.9-.8 2.1-1.5l.1-.4v-1.6zm.7 2.2c0 .5 0 1.1.2 1.7h-.7l-.1-1c-.4.6-1.2 1.2-2.3 1.2-1.5 0-2.2-1-2.2-2 0-1.7 1.5-2.7 4.4-2.6V51c0-.7-.1-2.2-1.8-2.2-.7 0-1.3.2-1.9.6l-.2-.6a4 4 0 012.2-.6c2 0 2.5 1.5 2.5 2.9v2.8zM111 52.8l.1.6c.3 1 1.3 1.8 2.4 1.8 1.7 0 2.6-1.3 2.6-3.3 0-1.6-1-3-2.5-3-1 0-2.1.7-2.4 1.9l-.2.6v1.4zm-.7-2.2v-2.3h.7v1.4c.6-1 1.5-1.6 2.8-1.6 1.8 0 3 1.6 3 3.7 0 2.6-1.5 4-3.2 4-1 0-2-.5-2.5-1.4v4.2h-.7v-8zM119.8 48.3V55h3v-6.7h.7V55h3v-6.7h.7v7.3h-8.1v-7.3h.7zM130.6 48.3V55c.4-1 .7-1.5 1.3-2.4l2.8-4.2h.7v7.3h-.7V52l.1-2.9-1.5 2.4-2.7 4.1h-.8v-7.3h.8zM143 51.4c0-1-.4-2.6-2.1-2.6-1.6 0-2.3 1.4-2.4 2.6h4.5zm-4.6.5c0 2.4 1.3 3.3 2.8 3.3 1 0 1.6-.2 2-.4l.2.5c-.3.2-1 .5-2.3.5-2 0-3.3-1.5-3.3-3.7 0-2.4 1.3-3.9 3.2-3.9 2.4 0 2.9 2.3 2.9 3.3v.4h-5.5zM150.9 55h1.2c1 0 2-.2 2.5-.9.4-.4.6-1 .6-1.7 0-1-.4-1.6-1-2a4 4 0 00-2.2-.5h-1.2V55zm4.4-9.6v.6h-4.4v3.4l1.3-.1c1 0 1.8.2 2.5.6.8.4 1.3 1.3 1.3 2.5a3 3 0 01-.7 2.1c-.8.8-2 1.1-3.3 1.1H150V45.3h5.2zM158.8 52.8v.6c.4 1 1.4 1.8 2.5 1.8 1.7 0 2.6-1.3 2.6-3.3 0-1.6-1-3-2.6-3-1 0-2 .7-2.4 1.9v2zm-.7-2.2v-2.3h.7v1.4c.5-1 1.4-1.6 2.7-1.6 2 0 3.1 1.6 3.1 3.7 0 2.6-1.5 4-3.3 4-1 0-1.9-.5-2.4-1.4v4.2h-.7v-8h-.1zM170.7 51.7c-1.5 0-3.7.2-3.7 2 0 1 .8 1.5 1.5 1.5 1.2 0 1.8-.8 2.1-1.5v-2h.1zm.7 2.2c0 .5 0 1.1.2 1.7h-.7l-.1-1c-.4.6-1.2 1.2-2.3 1.2-1.5 0-2.2-1-2.2-2 0-1.7 1.5-2.7 4.4-2.6V51c0-.7-.1-2.2-1.8-2.2-.7 0-1.3.2-1.9.6l-.2-.6a4 4 0 012.1-.6c2 0 2.5 1.5 2.5 2.9v2.8zM178.4 48.3v.7H176v6.6h-.7V49H173v-.7h5.5zM180.9 55l1.1.2c1.2 0 2.7-.4 2.7-1.8 0-1.5-1.6-1.9-2.8-1.9l-1 .1v3.5zm0-6.7V51h1.2c1.6 0 3.3.4 3.3 2.4 0 .6-.2 1-.6 1.4-.7.7-1.9.9-3 .9l-1.6-.1v-7.3h.7zM191.4 49c-.3-.2-.7-.2-1.2-.2-1 0-2.4.3-2.4 1.5 0 1.1 1.4 1.5 2.3 1.5h1.3V49zm.8 6.6h-.8v-3.3h-1.2c-.6 0-1 .2-1.3.3-.7.5-.9 1.6-1.2 2.4l-.3.5h-.8l.4-.8c.4-.8.5-1.7 1.3-2.3.2-.1.4-.3.8-.3-1-.2-2-.7-2-1.8 0-.7.3-1.2.8-1.5a4 4 0 012.3-.5l2 .1v7.2zM206 55.3c-.5.2-1.5.5-2.7.5-2.5 0-4.8-1.5-4.8-5.2 0-3 2-5.4 5.2-5.4 1.3 0 2 .3 2.3.5l-.2.6c-.6-.3-1.3-.5-2.2-.5-2.7 0-4.4 1.8-4.4 4.8 0 2.8 1.6 4.6 4.4 4.6.8 0 1.6-.2 2.2-.5l.2.6zM211.7 48.3v.7h-2.4v6.6h-.7V49h-2.4v-.7h5.5zM217.3 51.7c-1.6 0-3.6.2-3.6 2 0 1 .7 1.5 1.4 1.5 1.2 0 1.9-.8 2.1-1.5v-2h.1zm.8 2.2v1.7h-.6v-1c-.5.6-1.3 1.2-2.4 1.2-1.5 0-2.2-1-2.2-2 0-1.7 1.5-2.7 4.4-2.6V51c0-.7 0-2.2-1.8-2.2-.7 0-1.3.2-1.8.6l-.3-.6a4 4 0 012.1-.6c2.1 0 2.6 1.5 2.6 2.9v2.8zM221.4 52.8v.6c.4 1 1.4 1.8 2.5 1.8 1.7 0 2.6-1.3 2.6-3.3 0-1.6-1-3-2.5-3-1 0-2.1.7-2.4 1.9l-.2.6v1.4zm-.7-2.2l-.1-2.3h.7v1.4c.6-1 1.5-1.6 2.8-1.6 1.9 0 3 1.6 3 3.7 0 2.6-1.5 4-3.2 4-1 0-2-.5-2.5-1.4v4.2h-.7v-8zM230.2 48.3V55h3v-6.7h.7V55h3v-6.7h.6v7.3h-8.1v-7.3h.8zM241 48.3V52c0 1.2 0 1.8-.2 3l1.4-2.4 2.8-4.2h.8v7.3h-.7V52v-2.9l-1.5 2.4-2.7 4.1h-.8v-7.3h.8zM253.3 51.4c0-1-.3-2.6-2-2.6s-2.4 1.4-2.5 2.6h4.5zm-4.6.5c0 2.4 1.3 3.3 2.8 3.3 1 0 1.7-.2 2-.4l.2.5c-.2.2-1 .5-2.2.5-2.1 0-3.4-1.5-3.4-3.7 0-2.4 1.4-3.9 3.2-3.9 2.4 0 2.9 2.3 2.9 3.3v.4h-5.5zM267.4 55.3c-.5.2-1.5.5-2.7.5-2.5 0-4.8-1.5-4.8-5.2 0-3 2-5.4 5.2-5.4 1.3 0 2 .3 2.3.5l-.3.6c-.5-.3-1.2-.5-2.1-.5-2.7 0-4.4 1.8-4.4 4.8 0 2.8 1.5 4.6 4.3 4.6.9 0 1.7-.2 2.3-.5l.2.6zM274 51.4c0-1-.4-2.6-2.1-2.6-1.7 0-2.3 1.4-2.4 2.6h4.5zm-4.7.5c0 2.4 1.3 3.3 2.8 3.3 1 0 1.6-.2 2-.4l.2.5c-.2.2-1 .5-2.2.5-2.1 0-3.4-1.5-3.4-3.7 0-2.4 1.4-3.9 3.2-3.9 2.4 0 2.9 2.3 2.9 3.3v.4h-5.5zM282 55.3c-.2.1-1 .4-2 .4-2.1 0-3.5-1.5-3.5-3.7 0-2.3 1.5-3.9 3.7-3.9 1 0 1.6.3 1.9.5l-.3.6c-.3-.2-.9-.5-1.7-.5-1.9 0-2.9 1.5-2.9 3.2 0 2 1.2 3.2 2.9 3.2.8 0 1.4-.3 1.8-.5l.2.7zM289 48.3v.7h-2.4v6.6h-.7V49h-2.3v-.7h5.4zM291.5 52.8l.1.6c.3 1 1.3 1.8 2.4 1.8 1.7 0 2.6-1.3 2.6-3.3 0-1.6-1-3-2.5-3-1 0-2.1.7-2.4 1.9l-.2.6v1.4zm-.7-2.2v-2.3h.7v1.4c.6-1 1.5-1.6 2.8-1.6 1.8 0 3 1.6 3 3.7 0 2.6-1.5 4-3.2 4-1 0-2-.5-2.5-1.4v4.2h-.7v-8zM306.2 55.6h-.7v-7.3h.7v7.3zm-6-.6h1.1c1.2 0 2.5-.4 2.5-1.7 0-1.4-1.2-1.8-2.4-1.8h-1.1V55zm0-6.7V51h1.3c1.5 0 3 .5 3 2.3 0 .6-.3 1.1-.6 1.5-.7.7-1.8.9-2.7.9l-1.7-.1v-7.3h.8zM313.9 50.6l1.3.1c1.8 0 2.9-.9 2.9-2.5s-1.2-2.3-2.8-2.3l-1.4.1v4.6zm-.7-5.1l2.2-.2a4 4 0 012.7.8c.5.5.8 1.2.8 2a3 3 0 01-.8 2.1c-.6.8-1.7 1.2-3 1.2-.4 0-.8 0-1.2-.2v4.4h-.7V45.5zM323.6 55.2c1.5 0 2.7-1.4 2.7-3.3 0-1.3-.7-3.1-2.6-3.1-2 0-2.8 1.7-2.8 3.2 0 1.8 1.2 3.2 2.7 3.2zm0 .6c-2 0-3.4-1.5-3.4-3.7 0-2.5 1.6-3.9 3.5-3.9 2 0 3.3 1.5 3.3 3.7 0 2.7-1.9 3.9-3.5 3.9zM334.3 55.3c-.3.1-1 .4-2 .4-2.2 0-3.6-1.5-3.6-3.7 0-2.3 1.6-3.9 3.8-3.9.9 0 1.6.3 1.8.5l-.2.6c-.3-.2-1-.5-1.7-.5-2 0-3 1.5-3 3.2 0 2 1.3 3.2 3 3.2.8 0 1.4-.3 1.8-.5l.1.7zM341.1 55.3c-.3.1-1 .4-2.1.4-2 0-3.5-1.5-3.5-3.7 0-2.3 1.6-3.9 3.8-3.9.9 0 1.6.3 1.8.5l-.2.6c-.3-.2-1-.5-1.7-.5-2 0-3 1.5-3 3.2 0 2 1.2 3.2 3 3.2.8 0 1.4-.3 1.7-.5l.2.7zM343.9 48.3V52l-.1 3 1.4-2.4 2.7-4.2h.8v7.3h-.7V52v-2.9l-1.4 2.4-2.7 4.1h-.8v-7.3h.8zM352.1 48.3V55l1.3-2.4 2.8-4.2h.8v7.3h-.7V52v-2.9l-1.4 2.4-2.8 4.1h-.7v-7.3h.7z" fill="#224CFF"/></svg>
